<svg xmlns="http://www.w3.org/2000/svg" xmlns:xlink="http://www.w3.org/1999/xlink" width="1976" zoomAndPan="magnify" viewBox="0 0 1482 1009.499975" height="1346" preserveAspectRatio="xMidYMid meet" version="1.0"><defs><g/></defs><g fill="#ff6b00" fill-opacity="1"><g transform="translate(138.543325, 247.065399)"><g><path d="M 129.222656 -152.023438 L 7.601562 -152.023438 L 7.601562 0 L 38.007812 0 L 38.007812 -60.808594 L 129.222656 -60.808594 C 145.945312 -60.808594 159.625 -74.492188 159.625 -91.214844 L 159.625 -121.621094 C 159.625 -138.34375 145.945312 -152.023438 129.222656 -152.023438 Z M 38.007812 -91.214844 L 38.007812 -121.621094 L 129.222656 -121.621094 L 129.222656 -91.214844 Z M 38.007812 -91.214844 "/></g></g></g><g fill="#ff6b00" fill-opacity="1"><g transform="translate(374.5609, 247.065399)"><g><path d="M 159.625 -152.023438 L 38.007812 -152.023438 C 21.285156 -152.023438 7.601562 -138.34375 7.601562 -121.621094 L 7.601562 -30.40625 C 7.601562 -13.683594 21.285156 0 38.007812 0 L 159.625 0 L 159.625 -30.40625 L 38.007812 -30.40625 L 38.007812 -60.808594 L 159.625 -60.808594 L 159.625 -91.214844 L 38.007812 -91.214844 L 38.007812 -121.621094 L 159.625 -121.621094 Z M 159.625 -152.023438 "/></g></g></g><g fill="#ff6b00" fill-opacity="1"><g transform="translate(610.578474, 247.065399)"><g><path d="M 159.625 -152.023438 L 7.601562 -152.023438 L 7.601562 -121.621094 L 68.410156 -121.621094 L 68.410156 0 L 98.816406 0 L 98.816406 -121.621094 L 159.625 -121.621094 Z M 159.625 -152.023438 "/></g></g></g><g fill="#ff6b00" fill-opacity="1"><g transform="translate(846.596073, 247.065399)"><g><path d="M 159.625 -152.023438 L 38.007812 -152.023438 C 21.285156 -152.023438 7.601562 -138.34375 7.601562 -121.621094 L 7.601562 -30.40625 C 7.601562 -13.683594 21.285156 0 38.007812 0 L 159.625 0 L 159.625 -30.40625 L 38.007812 -30.40625 L 38.007812 -60.808594 L 159.625 -60.808594 L 159.625 -91.214844 L 38.007812 -91.214844 L 38.007812 -121.621094 L 159.625 -121.621094 Z M 159.625 -152.023438 "/></g></g></g><g fill="#ff6b00" fill-opacity="1"><g transform="translate(1082.613623, 247.065399)"><g><path d="M 159.625 -121.621094 C 159.625 -138.34375 145.945312 -152.023438 129.222656 -152.023438 L 7.601562 -152.023438 L 7.601562 0 L 38.007812 0 L 38.007812 -60.808594 L 55.871094 -60.808594 L 112.117188 -4.5625 C 115.160156 -1.519531 118.960938 0 123.140625 0 L 159.625 0 L 159.625 -30.40625 L 129.222656 -30.40625 L 98.816406 -60.808594 L 129.222656 -60.808594 C 145.945312 -60.808594 159.625 -74.492188 159.625 -91.214844 Z M 129.222656 -121.621094 L 129.222656 -91.214844 L 38.007812 -91.214844 L 38.007812 -121.621094 Z M 129.222656 -121.621094 "/></g></g></g><g fill="#357c3c" fill-opacity="1"><g transform="translate(138.543325, 785.111352)"><g><path d="M 360.894531 0 L 360.894531 -68.742188 L 85.925781 -68.742188 L 85.925781 -343.710938 L 17.183594 -343.710938 L 17.183594 -68.742188 C 17.183594 -30.933594 48.121094 0 85.925781 0 Z M 360.894531 0 "/></g></g></g><g fill="#357c3c" fill-opacity="1"><g transform="translate(516.61463, 785.111352)"><g><path d="M 223.410156 -360.894531 L 320.511719 -360.894531 L 262.078125 -419.328125 C 255.207031 -426.203125 246.613281 -429.636719 237.160156 -429.636719 L 140.921875 -429.636719 C 131.46875 -429.636719 122.875 -426.203125 116.003906 -419.328125 L 57.570312 -360.894531 L 154.667969 -360.894531 L 189.039062 -395.265625 Z M 85.925781 -343.710938 C 48.121094 -343.710938 17.183594 -312.777344 17.183594 -274.96875 L 17.183594 0 L 85.925781 0 L 85.925781 -137.484375 L 292.152344 -137.484375 L 292.152344 0 L 360.894531 0 L 360.894531 -274.96875 C 360.894531 -312.777344 329.960938 -343.710938 292.152344 -343.710938 Z M 85.925781 -274.96875 L 292.152344 -274.96875 L 292.152344 -206.226562 L 85.925781 -206.226562 Z M 85.925781 -274.96875 "/></g></g></g><g fill="#357c3c" fill-opacity="1"><g transform="translate(894.685936, 785.111352)"><g><path d="M 85.925781 -343.710938 C 48.121094 -343.710938 17.183594 -312.777344 17.183594 -274.96875 L 17.183594 0 L 85.925781 0 L 85.925781 -274.96875 L 154.667969 -274.96875 L 154.667969 0 L 223.410156 0 L 223.410156 -274.96875 L 292.152344 -274.96875 L 292.152344 0 L 360.894531 0 L 360.894531 -274.96875 C 360.894531 -312.777344 329.960938 -343.710938 292.152344 -343.710938 Z M 85.925781 -343.710938 "/></g></g></g></svg>